<?xml version="1.0" encoding="utf-8"?>
<!-- Generator: Adobe Illustrator 22.0.1, SVG Export Plug-In . SVG Version: 6.00 Build 0)  -->
<svg version="1.1" id="Layer_1" xmlns="http://www.w3.org/2000/svg" xmlns:xlink="http://www.w3.org/1999/xlink" x="0px" y="0px"
	 viewBox="0 0 959 70.1" style="enable-background:new 0 0 959 70.1;" xml:space="preserve">
<style type="text/css">
	.st0{fill:#FFBA38;}
	.st1{fill:url(#SVGID_1_);}
	.st2{fill:none;stroke:#58595B;stroke-width:0.5;stroke-miterlimit:10;}
	.st3{fill:#58595B;}
	.st4{font-family:'MyriadPro-Regular';}
	.st5{font-size:10.79px;}
	.st6{font-size:9px;}
</style>
<g>
	<rect y="42.1" class="st0" width="959" height="28"/>
	<rect class="st0" width="959" height="28"/>
	<linearGradient id="SVGID_1_" gradientUnits="userSpaceOnUse" x1="479.5" y1="42.1426" x2="479.5" y2="28">
		<stop  offset="0" style="stop-color:#FFC10E"/>
		<stop  offset="0.5" style="stop-color:#F6921E"/>
		<stop  offset="1" style="stop-color:#FFC10E"/>
	</linearGradient>
	<rect y="28" class="st1" width="959" height="14.1"/>
	<g>
		<g>
			<g>
				<line class="st2" x1="899.3" y1="57.1" x2="899.3" y2="70.1"/>
				<line class="st2" x1="885.1" y1="65.1" x2="885.1" y2="70.1"/>
				<line class="st2" x1="871" y1="65.1" x2="871" y2="70.1"/>
				<line class="st2" x1="856.8" y1="65.1" x2="856.8" y2="70.1"/>
				<line class="st2" x1="842.6" y1="65.1" x2="842.6" y2="70.1"/>
				<line class="st2" x1="828.5" y1="62.1" x2="828.5" y2="70.1"/>
				<line class="st2" x1="814.3" y1="65.1" x2="814.3" y2="70.1"/>
				<line class="st2" x1="800.1" y1="65.1" x2="800.1" y2="70.1"/>
				<line class="st2" x1="785.9" y1="65.1" x2="785.9" y2="70.1"/>
				<line class="st2" x1="771.8" y1="65.1" x2="771.8" y2="70.1"/>
				<line class="st2" x1="757.6" y1="57.1" x2="757.6" y2="70.1"/>
				<line class="st2" x1="743.4" y1="65.1" x2="743.4" y2="70.1"/>
				<line class="st2" x1="729.2" y1="65.1" x2="729.2" y2="70.1"/>
				<line class="st2" x1="715.1" y1="65.1" x2="715.1" y2="70.1"/>
				<line class="st2" x1="700.9" y1="65.1" x2="700.9" y2="70.1"/>
				<line class="st2" x1="686.7" y1="62.1" x2="686.7" y2="70.1"/>
				<line class="st2" x1="672.6" y1="65.1" x2="672.6" y2="70.1"/>
				<line class="st2" x1="658.4" y1="65.1" x2="658.4" y2="70.1"/>
				<line class="st2" x1="644.2" y1="65.1" x2="644.2" y2="70.1"/>
				<line class="st2" x1="630" y1="65.1" x2="630" y2="70.1"/>
				<line class="st2" x1="615.9" y1="57.1" x2="615.9" y2="70.1"/>
				<line class="st2" x1="601.7" y1="65.1" x2="601.7" y2="70.1"/>
				<line class="st2" x1="587.5" y1="65.1" x2="587.5" y2="70.1"/>
				<line class="st2" x1="573.3" y1="65.1" x2="573.3" y2="70.1"/>
				<line class="st2" x1="559.2" y1="65.1" x2="559.2" y2="70.1"/>
				<line class="st2" x1="545" y1="62.1" x2="545" y2="70.1"/>
				<line class="st2" x1="530.8" y1="65.1" x2="530.8" y2="70.1"/>
				<line class="st2" x1="516.7" y1="65.1" x2="516.7" y2="70.1"/>
				<line class="st2" x1="502.5" y1="65.1" x2="502.5" y2="70.1"/>
				<line class="st2" x1="488.3" y1="65.1" x2="488.3" y2="70.1"/>
				<line class="st2" x1="474.1" y1="57.1" x2="474.1" y2="70.1"/>
				<line class="st2" x1="460" y1="65.1" x2="460" y2="70.1"/>
				<line class="st2" x1="445.8" y1="65.1" x2="445.8" y2="70.1"/>
				<line class="st2" x1="431.6" y1="65.1" x2="431.6" y2="70.1"/>
				<line class="st2" x1="417.5" y1="65.1" x2="417.5" y2="70.1"/>
				<line class="st2" x1="403.3" y1="62.1" x2="403.3" y2="70.1"/>
				<line class="st2" x1="389.1" y1="65.1" x2="389.1" y2="70.1"/>
				<line class="st2" x1="374.9" y1="65.1" x2="374.9" y2="70.1"/>
				<line class="st2" x1="360.8" y1="65.1" x2="360.8" y2="70.1"/>
				<line class="st2" x1="346.6" y1="65.1" x2="346.6" y2="70.1"/>
				<line class="st2" x1="332.4" y1="57.1" x2="332.4" y2="70.1"/>
				<line class="st2" x1="318.2" y1="65.1" x2="318.2" y2="70.1"/>
				<line class="st2" x1="304.1" y1="65.1" x2="304.1" y2="70.1"/>
				<line class="st2" x1="289.9" y1="65.1" x2="289.9" y2="70.1"/>
				<line class="st2" x1="275.7" y1="65.1" x2="275.7" y2="70.1"/>
				<line class="st2" x1="261.6" y1="62.1" x2="261.6" y2="70.1"/>
				<line class="st2" x1="247.4" y1="65.1" x2="247.4" y2="70.1"/>
				<line class="st2" x1="233.2" y1="65.1" x2="233.2" y2="70.1"/>
				<line class="st2" x1="219" y1="65.1" x2="219" y2="70.1"/>
				<line class="st2" x1="204.9" y1="65.1" x2="204.9" y2="70.1"/>
				<line class="st2" x1="190.7" y1="57.1" x2="190.7" y2="70.1"/>
				<line class="st2" x1="176.5" y1="65.1" x2="176.5" y2="70.1"/>
				<line class="st2" x1="162.4" y1="65.1" x2="162.4" y2="70.1"/>
				<line class="st2" x1="148.2" y1="65.1" x2="148.2" y2="70.1"/>
				<line class="st2" x1="134" y1="65.1" x2="134" y2="70.1"/>
				<line class="st2" x1="119.8" y1="62.1" x2="119.8" y2="70.1"/>
				<line class="st2" x1="105.7" y1="65.1" x2="105.7" y2="70.1"/>
				<line class="st2" x1="91.5" y1="65.1" x2="91.5" y2="70.1"/>
				<line class="st2" x1="77.3" y1="65.1" x2="77.3" y2="70.1"/>
				<line class="st2" x1="63.1" y1="65.1" x2="63.1" y2="70.1"/>
				<line class="st2" x1="49" y1="57.1" x2="49" y2="70.1"/>
			</g>
			<g>
				<text transform="matrix(-1 0 0 -1 902.0801 47.9512)" class="st3 st4 st5">0</text>
				<text transform="matrix(-1 0 0 -1 760.3594 47.9512)" class="st3 st4 st5">1</text>
				<text transform="matrix(-1 0 0 -1 618.6328 47.9512)" class="st3 st4 st5">2</text>
				<text transform="matrix(-1 0 0 -1 476.9102 47.9512)" class="st3 st4 st5">3</text>
				<text transform="matrix(-1 0 0 -1 335.1856 47.9512)" class="st3 st4 st5">4</text>
				<text transform="matrix(-1 0 0 -1 193.4649 47.9512)" class="st3 st4 st5">5</text>
				<text transform="matrix(-1 0 0 -1 51.7403 47.9512)" class="st3 st4 st5">6</text>
			</g>
		</g>
		<g>
			<g>
				<line class="st2" x1="47.6" y1="13" x2="47.6" y2="0"/>
				<line class="st2" x1="53.3" y1="5" x2="53.3" y2="0"/>
				<line class="st2" x1="58.9" y1="5" x2="58.9" y2="0"/>
				<line class="st2" x1="64.6" y1="5" x2="64.6" y2="0"/>
				<line class="st2" x1="70.3" y1="5" x2="70.3" y2="0"/>
				<line class="st2" x1="75.9" y1="8" x2="75.9" y2="0"/>
				<line class="st2" x1="81.6" y1="5" x2="81.6" y2="0"/>
				<line class="st2" x1="87.3" y1="5" x2="87.3" y2="0"/>
				<line class="st2" x1="92.9" y1="5" x2="92.9" y2="0"/>
				<line class="st2" x1="98.6" y1="5" x2="98.6" y2="0"/>
				<line class="st2" x1="104.3" y1="13" x2="104.3" y2="0"/>
				<line class="st2" x1="109.9" y1="5" x2="109.9" y2="0"/>
				<line class="st2" x1="115.6" y1="5" x2="115.6" y2="0"/>
				<line class="st2" x1="121.3" y1="5" x2="121.3" y2="0"/>
				<line class="st2" x1="127" y1="5" x2="127" y2="0"/>
				<line class="st2" x1="132.6" y1="8" x2="132.6" y2="0"/>
				<line class="st2" x1="138.3" y1="5" x2="138.3" y2="0"/>
				<line class="st2" x1="144" y1="5" x2="144" y2="0"/>
				<line class="st2" x1="149.6" y1="5" x2="149.6" y2="0"/>
				<line class="st2" x1="155.3" y1="5" x2="155.3" y2="0"/>
				<line class="st2" x1="161" y1="13" x2="161" y2="0"/>
				<line class="st2" x1="166.6" y1="5" x2="166.6" y2="0"/>
				<line class="st2" x1="172.3" y1="5" x2="172.3" y2="0"/>
				<line class="st2" x1="178" y1="5" x2="178" y2="0"/>
				<line class="st2" x1="183.6" y1="5" x2="183.6" y2="0"/>
				<line class="st2" x1="189.3" y1="8" x2="189.3" y2="0"/>
				<line class="st2" x1="195" y1="5" x2="195" y2="0"/>
				<line class="st2" x1="200.7" y1="5" x2="200.7" y2="0"/>
				<line class="st2" x1="206.3" y1="5" x2="206.3" y2="0"/>
				<line class="st2" x1="212" y1="5" x2="212" y2="0"/>
				<line class="st2" x1="217.7" y1="13" x2="217.7" y2="0"/>
				<line class="st2" x1="223.3" y1="5" x2="223.3" y2="0"/>
				<line class="st2" x1="229" y1="5" x2="229" y2="0"/>
				<line class="st2" x1="234.7" y1="5" x2="234.7" y2="0"/>
				<line class="st2" x1="240.3" y1="5" x2="240.3" y2="0"/>
				<line class="st2" x1="246" y1="8" x2="246" y2="0"/>
				<line class="st2" x1="251.7" y1="5" x2="251.7" y2="0"/>
				<line class="st2" x1="257.3" y1="5" x2="257.3" y2="0"/>
				<line class="st2" x1="263" y1="5" x2="263" y2="0"/>
				<line class="st2" x1="268.7" y1="5" x2="268.7" y2="0"/>
				<line class="st2" x1="274.3" y1="13" x2="274.3" y2="0"/>
				<line class="st2" x1="280" y1="5" x2="280" y2="0"/>
				<line class="st2" x1="285.7" y1="5" x2="285.7" y2="0"/>
				<line class="st2" x1="291.4" y1="5" x2="291.4" y2="0"/>
				<line class="st2" x1="297" y1="5" x2="297" y2="0"/>
				<line class="st2" x1="302.7" y1="8" x2="302.7" y2="0"/>
				<line class="st2" x1="308.4" y1="5" x2="308.4" y2="0"/>
				<line class="st2" x1="314" y1="5" x2="314" y2="0"/>
				<line class="st2" x1="319.7" y1="5" x2="319.7" y2="0"/>
				<line class="st2" x1="325.4" y1="5" x2="325.4" y2="0"/>
				<line class="st2" x1="331" y1="13" x2="331" y2="0"/>
				<line class="st2" x1="336.7" y1="5" x2="336.7" y2="0"/>
				<line class="st2" x1="342.4" y1="5" x2="342.4" y2="0"/>
				<line class="st2" x1="348" y1="5" x2="348" y2="0"/>
				<line class="st2" x1="353.7" y1="5" x2="353.7" y2="0"/>
				<line class="st2" x1="359.4" y1="8" x2="359.4" y2="0"/>
				<line class="st2" x1="365" y1="5" x2="365" y2="0"/>
				<line class="st2" x1="370.7" y1="5" x2="370.7" y2="0"/>
				<line class="st2" x1="376.4" y1="5" x2="376.4" y2="0"/>
				<line class="st2" x1="382.1" y1="5" x2="382.1" y2="0"/>
				<line class="st2" x1="387.7" y1="13" x2="387.7" y2="0"/>
				<line class="st2" x1="393.4" y1="5" x2="393.4" y2="0"/>
				<line class="st2" x1="399.1" y1="5" x2="399.1" y2="0"/>
				<line class="st2" x1="404.7" y1="5" x2="404.7" y2="0"/>
				<line class="st2" x1="410.4" y1="5" x2="410.4" y2="0"/>
				<line class="st2" x1="416.1" y1="8" x2="416.1" y2="0"/>
				<line class="st2" x1="421.7" y1="5" x2="421.7" y2="0"/>
				<line class="st2" x1="427.4" y1="5" x2="427.4" y2="0"/>
				<line class="st2" x1="433.1" y1="5" x2="433.1" y2="0"/>
				<line class="st2" x1="438.7" y1="5" x2="438.7" y2="0"/>
				<line class="st2" x1="444.4" y1="13" x2="444.4" y2="0"/>
				<line class="st2" x1="450.1" y1="5" x2="450.1" y2="0"/>
				<line class="st2" x1="455.8" y1="5" x2="455.8" y2="0"/>
				<line class="st2" x1="461.4" y1="5" x2="461.4" y2="0"/>
				<line class="st2" x1="467.1" y1="5" x2="467.1" y2="0"/>
				<line class="st2" x1="472.8" y1="8" x2="472.8" y2="0"/>
				<line class="st2" x1="478.4" y1="5" x2="478.4" y2="0"/>
				<line class="st2" x1="484.1" y1="5" x2="484.1" y2="0"/>
				<line class="st2" x1="489.8" y1="5" x2="489.8" y2="0"/>
				<line class="st2" x1="495.4" y1="5" x2="495.4" y2="0"/>
				<line class="st2" x1="501.1" y1="13" x2="501.1" y2="0"/>
				<line class="st2" x1="506.8" y1="5" x2="506.8" y2="0"/>
				<line class="st2" x1="512.4" y1="5" x2="512.4" y2="0"/>
				<line class="st2" x1="518.1" y1="5" x2="518.1" y2="0"/>
				<line class="st2" x1="523.8" y1="5" x2="523.8" y2="0"/>
				<line class="st2" x1="529.5" y1="8" x2="529.5" y2="0"/>
				<line class="st2" x1="535.1" y1="5" x2="535.1" y2="0"/>
				<line class="st2" x1="540.8" y1="5" x2="540.8" y2="0"/>
				<line class="st2" x1="546.5" y1="5" x2="546.5" y2="0"/>
				<line class="st2" x1="552.1" y1="5" x2="552.1" y2="0"/>
				<line class="st2" x1="557.8" y1="13" x2="557.8" y2="0"/>
				<line class="st2" x1="563.5" y1="5" x2="563.5" y2="0"/>
				<line class="st2" x1="569.1" y1="5" x2="569.1" y2="0"/>
				<line class="st2" x1="574.8" y1="5" x2="574.8" y2="0"/>
				<line class="st2" x1="580.5" y1="5" x2="580.5" y2="0"/>
				<line class="st2" x1="586.1" y1="8" x2="586.1" y2="0"/>
				<line class="st2" x1="591.8" y1="5" x2="591.8" y2="0"/>
				<line class="st2" x1="597.5" y1="5" x2="597.5" y2="0"/>
				<line class="st2" x1="603.1" y1="5" x2="603.1" y2="0"/>
				<line class="st2" x1="608.8" y1="5" x2="608.8" y2="0"/>
				<line class="st2" x1="614.5" y1="13" x2="614.5" y2="0"/>
				<line class="st2" x1="620.2" y1="5" x2="620.2" y2="0"/>
				<line class="st2" x1="625.8" y1="5" x2="625.8" y2="0"/>
				<line class="st2" x1="631.5" y1="5" x2="631.5" y2="0"/>
				<line class="st2" x1="637.2" y1="5" x2="637.2" y2="0"/>
				<line class="st2" x1="642.8" y1="8" x2="642.8" y2="0"/>
				<line class="st2" x1="648.5" y1="5" x2="648.5" y2="0"/>
				<line class="st2" x1="654.2" y1="5" x2="654.2" y2="0"/>
				<line class="st2" x1="659.8" y1="5" x2="659.8" y2="0"/>
				<line class="st2" x1="665.5" y1="5" x2="665.5" y2="0"/>
				<line class="st2" x1="671.2" y1="13" x2="671.2" y2="0"/>
				<line class="st2" x1="676.8" y1="5" x2="676.8" y2="0"/>
				<line class="st2" x1="682.5" y1="5" x2="682.5" y2="0"/>
				<line class="st2" x1="688.2" y1="5" x2="688.2" y2="0"/>
				<line class="st2" x1="693.8" y1="5" x2="693.8" y2="0"/>
				<line class="st2" x1="699.5" y1="8" x2="699.5" y2="0"/>
				<line class="st2" x1="705.2" y1="5" x2="705.2" y2="0"/>
				<line class="st2" x1="710.9" y1="5" x2="710.9" y2="0"/>
				<line class="st2" x1="716.5" y1="5" x2="716.5" y2="0"/>
				<line class="st2" x1="722.2" y1="5" x2="722.2" y2="0"/>
				<line class="st2" x1="727.9" y1="13" x2="727.9" y2="0"/>
				<line class="st2" x1="733.5" y1="5" x2="733.5" y2="0"/>
				<line class="st2" x1="739.2" y1="5" x2="739.2" y2="0"/>
				<line class="st2" x1="744.9" y1="5" x2="744.9" y2="0"/>
				<line class="st2" x1="750.5" y1="5" x2="750.5" y2="0"/>
				<line class="st2" x1="756.2" y1="8" x2="756.2" y2="0"/>
				<line class="st2" x1="761.9" y1="5" x2="761.9" y2="0"/>
				<line class="st2" x1="767.5" y1="5" x2="767.5" y2="0"/>
				<line class="st2" x1="773.2" y1="5" x2="773.2" y2="0"/>
				<line class="st2" x1="778.9" y1="5" x2="778.9" y2="0"/>
				<line class="st2" x1="784.6" y1="13" x2="784.6" y2="0"/>
				<line class="st2" x1="790.2" y1="5" x2="790.2" y2="0"/>
				<line class="st2" x1="795.9" y1="5" x2="795.9" y2="0"/>
				<line class="st2" x1="801.6" y1="5" x2="801.6" y2="0"/>
				<line class="st2" x1="807.2" y1="5" x2="807.2" y2="0"/>
				<line class="st2" x1="812.9" y1="8" x2="812.9" y2="0"/>
				<line class="st2" x1="818.6" y1="5" x2="818.6" y2="0"/>
				<line class="st2" x1="824.2" y1="5" x2="824.2" y2="0"/>
				<line class="st2" x1="829.9" y1="5" x2="829.9" y2="0"/>
				<line class="st2" x1="835.6" y1="5" x2="835.6" y2="0"/>
				<line class="st2" x1="841.2" y1="13" x2="841.2" y2="0"/>
				<line class="st2" x1="846.9" y1="5" x2="846.9" y2="0"/>
				<line class="st2" x1="852.6" y1="5" x2="852.6" y2="0"/>
				<line class="st2" x1="858.2" y1="5" x2="858.2" y2="0"/>
				<line class="st2" x1="863.9" y1="5" x2="863.9" y2="0"/>
				<line class="st2" x1="869.6" y1="8" x2="869.6" y2="0"/>
				<line class="st2" x1="875.3" y1="5" x2="875.3" y2="0"/>
				<line class="st2" x1="880.9" y1="5" x2="880.9" y2="0"/>
				<line class="st2" x1="886.6" y1="5" x2="886.6" y2="0"/>
				<line class="st2" x1="892.3" y1="5" x2="892.3" y2="0"/>
				<line class="st2" x1="897.9" y1="13" x2="897.9" y2="0"/>
			</g>
			<g>
				<text transform="matrix(1 0 0 1 44.8233 22.1027)" class="st3 st4 st5">0</text>
				<text transform="matrix(1 0 0 1 101.5127 22.1027)" class="st3 st4 st5">1</text>
				<text transform="matrix(1 0 0 1 158.2022 22.1027)" class="st3 st4 st5">2</text>
				<text transform="matrix(1 0 0 1 214.8916 22.1027)" class="st3 st4 st5">3</text>
				<text transform="matrix(1 0 0 1 271.5811 22.1027)" class="st3 st4 st5">4</text>
				<text transform="matrix(1 0 0 1 328.2705 22.1027)" class="st3 st4 st5">5</text>
				<text transform="matrix(1 0 0 1 384.96 22.1027)" class="st3 st4 st5">6</text>
				<text transform="matrix(1 0 0 1 441.6494 22.1027)" class="st3 st4 st5">7</text>
				<text transform="matrix(1 0 0 1 498.3389 22.1027)" class="st3 st4 st5">8</text>
				<text transform="matrix(1 0 0 1 555.0283 22.1027)" class="st3 st4 st5">9</text>
				<text transform="matrix(1 0 0 1 608.9502 22.1027)" class="st3 st4 st5">10</text>
				<text transform="matrix(1 0 0 1 665.6396 22.1027)" class="st3 st4 st5">11</text>
				<text transform="matrix(1 0 0 1 722.3291 22.1027)" class="st3 st4 st5">12</text>
				<text transform="matrix(1 0 0 1 779.0186 22.1027)" class="st3 st4 st5">13</text>
				<text transform="matrix(1 0 0 1 835.708 22.1027)" class="st3 st4 st5">14</text>
				<text transform="matrix(1 0 0 1 892.3975 22.1027)" class="st3 st4 st5">15</text>
			</g>
		</g>
		<text transform="matrix(1 0 0 1 14.6445 12.5332)" class="st3 st4 st6">1:50</text>
		<g>
			<text transform="matrix(-1 0 0 -1 933.6436 57.6099)" class="st3 st4 st6">1:20</text>
		</g>
	</g>
</g>
</svg>
