<?xml version="1.0" encoding="utf-8"?>
<!-- Generator: Adobe Illustrator 22.0.1, SVG Export Plug-In . SVG Version: 6.00 Build 0)  -->
<svg version="1.1" id="Layer_1" xmlns="http://www.w3.org/2000/svg" xmlns:xlink="http://www.w3.org/1999/xlink" x="0px" y="0px"
	 viewBox="0 0 82.8 8.5" style="enable-background:new 0 0 82.8 8.5;" xml:space="preserve">
<style type="text/css">
	.st0{fill:#B5B5B5;}
</style>
<g>
	<path d="M14.2,5l-3.3-4.9H12l2.7,4l2.7-4h1.1L15.1,5v3.4h-1V5z"/>
	<path d="M19.3,4.3c0-2.3,1.9-4.3,4.2-4.3c2.3,0,4.2,1.9,4.2,4.3c0,2.3-1.9,4.3-4.2,4.3C21.2,8.5,19.3,6.6,19.3,4.3z M26.8,4.3
		c0-1.8-1.5-3.4-3.3-3.4s-3.3,1.6-3.3,3.4c0,1.8,1.5,3.4,3.3,3.4S26.8,6.1,26.8,4.3z"/>
	<path d="M29.4,5V0.1h0.9V5c0,1.6,1,2.7,2.5,2.7c1.5,0,2.5-1.1,2.5-2.7V0.1h0.9V5c0,2.1-1.4,3.6-3.4,3.6C30.8,8.5,29.4,7.1,29.4,5z"
		/>
	<path d="M42.4,5.3l2.1,3h-1.1l-2.1-3h-2.2v3h-0.9V0.1h3.3c1.7,0,3,1.1,3,2.6C44.6,4.1,43.7,5.1,42.4,5.3z M39.2,4.5h2.2
		c1.3,0,2.3-0.6,2.3-1.8c0-1.1-0.9-1.8-2.3-1.8h-2.2V4.5z"/>
</g>
<g>
	<path d="M54.5,6.3v2.1h-6.2V0.1h2.3v6.2H54.5z"/>
	<path d="M55.2,4.3c0-2.3,2.1-4.3,4.5-4.3c2.4,0,4.5,1.9,4.5,4.3c0,2.3-2.1,4.3-4.5,4.3C57.2,8.5,55.2,6.6,55.2,4.3z M61.8,4.3
		c0-1.2-1-2.1-2.1-2.1c-1.1,0-2.1,1-2.1,2.1c0,1.2,1,2.2,2.1,2.2C60.8,6.4,61.8,5.4,61.8,4.3z"/>
	<path d="M69.1,3.6h3.9v3.5c-0.9,0.9-2.1,1.5-3.4,1.5c-2.5,0-4.5-2-4.5-4.3C65,1.9,67,0,69.5,0c1.3,0,2.6,0.5,3.4,1.5L71.2,3
		c-0.4-0.5-1-0.8-1.7-0.8c-1.2,0-2.1,1-2.1,2.1c0,1.2,1,2.2,2.1,2.2c0.4,0,0.8-0.1,1.2-0.3V5.3h-1.6V3.6z"/>
	<path d="M73.9,4.3c0-2.3,2.1-4.3,4.5-4.3c2.4,0,4.5,1.9,4.5,4.3c0,2.3-2.1,4.3-4.5,4.3C75.9,8.5,73.9,6.6,73.9,4.3z M80.4,4.3
		c0-1.2-1-2.1-2.1-2.1c-1.1,0-2.1,1-2.1,2.1c0,1.2,1,2.2,2.1,2.2C79.5,6.4,80.4,5.4,80.4,4.3z"/>
</g>
<g>
	<rect y="0.1" class="st0" width="3.7" height="3.7"/>
	<rect x="4.6" y="0.1" width="3.7" height="3.7"/>
	<rect x="4.6" y="4.7" class="st0" width="3.7" height="3.7"/>
	<rect y="4.7" width="3.7" height="3.7"/>
</g>
</svg>
